# xmcd
#
# Track frame offsets:
#	150
#	27181
#	50261
#	68522
#	80621
#	117649
#	141120
#	191992
#
# Disc length: 4542 seconds
#
# Revision: 1
# Processed by: cddbd v1.5.2PL0 Copyright (c) Steve Scherf et al.
# Submitted via: audiograbber 1.83.01
#
DISCID=6e11bc08
DTITLE=Magda Piskorczyk and Slidin' Slim - Magda Piskorczyk and Slidin' Slim - 
DTITLE=Live at Satyrblues
DYEAR=2010
DGENRE=Blues
TTITLE0=You Can't Judge a Book
TTITLE1=Driftin' Blues
TTITLE2=Braggin'
TTITLE3=Married Woman Blues
TTITLE4=Papa Come Quick
TTITLE5=Brand New Face
TTITLE6=The Kokomo Medley
TTITLE7=Data Track
EXTD=
EXTT0=
EXTT1=
EXTT2=
EXTT3=
EXTT4=
EXTT5=
EXTT6=
EXTT7=
PLAYORDER=
